<?xml version="1.0" standalone="no"?>
<!DOCTYPE svg PUBLIC "-//W3C//DTD SVG 20010904//EN"
 "http://www.w3.org/TR/2001/REC-SVG-20010904/DTD/svg10.dtd">
<svg version="1.0" xmlns="http://www.w3.org/2000/svg"
 width="605.000000pt" height="529.000000pt" viewBox="0 0 605.000000 529.000000"
 preserveAspectRatio="xMidYMid meet">

<g transform="translate(0.000000,529.000000) scale(0.100000,-0.100000)"
fill="#000000" stroke="none">
<path d="M3365 4760 c-93 -4 -182 -12 -197 -18 -15 -6 -28 -7 -30 -2 -4 11
-779 24 -810 14 -21 -6 -21 -7 -3 -20 13 -9 48 -14 105 -14 48 0 115 -3 150
-7 l63 -6 -7 -110 c-4 -76 -3 -114 5 -123 10 -12 1 -14 -49 -14 -70 0 -72 3
-72 94 0 35 -5 77 -11 94 -12 34 -30 39 -149 45 -52 2 -55 3 -60 32 l-5 30
-195 0 c-932 -1 -1374 -5 -1381 -13 -20 -22 -29 -91 -29 -213 0 -77 -4 -139
-8 -139 -5 0 -6 -27 -4 -60 3 -34 0 -66 -6 -73 -6 -7 -20 -69 -32 -137 -12
-69 -30 -165 -41 -213 -11 -49 -17 -93 -14 -98 4 -5 21 -9 38 -9 18 0 37 -4
43 -8 13 -9 -34 -245 -64 -319 l-22 -53 21 -10 c11 -6 34 -10 52 -8 36 3 35
19 17 -147 -6 -55 -18 -147 -26 -205 l-16 -104 24 -21 c25 -20 25 -20 16 -145
-5 -69 -15 -167 -23 -217 -20 -125 -20 -127 15 -138 l31 -10 2 -173 c1 -120
-1 -172 -9 -172 -8 0 -13 -73 -18 -232 -4 -128 -8 -251 -9 -273 l-2 -40 237
-3 237 -2 3 -33 3 -32 284 -3 c307 -3 301 -4 301 51 0 25 3 27 40 27 l40 0 0
-57 c0 -32 4 -63 8 -69 19 -29 346 -44 457 -20 l60 13 0 36 c0 36 1 37 37 37
20 0 44 3 54 7 16 6 17 0 10 -78 -6 -74 -14 -98 -62 -200 -62 -128 -66 -165
-24 -186 36 -18 1264 -18 1300 0 44 22 39 69 -21 188 -44 88 -53 117 -60 184
-5 44 -5 83 -1 87 4 4 25 8 47 10 39 3 40 4 43 47 3 39 5 42 25 37 12 -3 73
-6 135 -6 l112 0 0 -34 c0 -56 11 -59 223 -64 200 -4 255 3 243 33 -4 12 6 15
55 15 62 0 200 25 231 41 12 7 18 21 18 45 l0 35 103 -3 102 -3 5 -57 c5 -59
24 -94 38 -71 5 8 61 16 152 22 229 17 250 28 231 124 -5 29 -12 76 -16 104
l-6 53 46 0 c57 0 62 11 36 78 -15 37 -71 281 -71 308 0 2 20 6 45 10 25 3 48
10 51 15 2 4 -2 32 -11 61 -41 143 -79 384 -82 531 l-4 147 25 0 c14 0 27 3
29 8 4 6 -34 261 -48 318 -3 16 1 23 15 27 23 6 27 52 10 121 -7 32 -6 42 7
51 13 10 13 24 0 136 -9 68 -18 157 -22 197 l-6 72 31 6 c17 4 32 10 35 14 2
3 -2 31 -10 61 -11 41 -55 308 -55 334 0 3 7 5 16 5 14 0 15 7 10 43 -6 34
-24 295 -26 360 0 9 7 17 15 17 23 0 18 16 -11 28 -18 9 -88 11 -232 8 -387
-7 -597 -6 -867 3 -174 5 -323 5 -418 -2 -109 -7 -151 -7 -160 2 -12 12 -17
12 -282 1z m-1105 -53 c0 -22 -5 -23 -115 -34 -63 -7 -120 -15 -125 -18 -6 -3
-10 -54 -10 -113 0 -81 4 -113 16 -130 14 -20 14 -22 -4 -22 -10 0 -27 -9 -37
-20 -44 -48 -55 -20 -55 142 0 75 -4 119 -11 124 -6 3 -46 9 -88 13 -73 6 -76
7 -76 31 l0 25 245 11 c135 6 248 11 253 12 4 1 7 -8 7 -21z m1360 -4 c1 -63
19 -290 25 -319 7 -30 6 -30 -28 -26 -34 4 -35 5 -42 60 -12 95 2 90 -217 91
-106 1 -195 4 -197 7 -3 3 -7 49 -9 103 l-4 98 223 2 c123 1 225 4 228 6 12
12 21 2 21 -22z m406 -14 l1 -40 -161 6 c-198 8 -206 9 -206 38 0 20 4 22 38
19 20 -1 87 1 147 6 194 16 180 18 181 -29z m-2816 3 c0 -16 -3 -70 -6 -120
l-7 -92 -51 0 c-67 0 -100 -17 -106 -55 -4 -23 -10 -30 -28 -29 -12 0 -80 1
-152 2 l-129 2 -3 154 -3 154 165 -4 c91 -3 194 -1 230 4 36 5 71 10 78 11 7
0 12 -11 12 -27z m489 19 c7 -5 11 -18 9 -30 -3 -21 -8 -22 -135 -24 -77 -1
-136 -6 -143 -13 -6 -6 -13 -47 -17 -93 l-6 -82 -81 3 c-57 2 -81 7 -80 16 1
6 2 62 3 122 l1 110 218 0 c120 -1 223 -5 231 -9z m1407 -4 c1 -1 4 -102 6
-224 l3 -223 -31 0 -31 0 -5 90 c-3 50 -9 94 -13 98 -3 4 -90 9 -192 10 -167
4 -184 5 -177 20 4 10 9 67 11 127 l5 110 212 -3 c116 -2 212 -4 212 -5z
m1360 -9 c-4 -13 -9 -65 -13 -115 l-6 -93 -148 0 -148 0 -6 58 c-7 70 -15 86
-46 91 -29 4 -39 17 -39 54 l0 27 206 0 206 0 -6 -22z m690 12 l132 0 4 -182
c3 -101 3 -185 1 -188 -3 -3 -48 -8 -101 -12 -53 -3 -136 -9 -184 -13 l-86 -8
-12 39 c-7 21 -14 115 -17 208 l-6 169 69 -6 c38 -4 128 -7 200 -7z m-308 -77
l-3 -78 -150 -5 -150 -5 -3 -40 c-1 -22 -4 -121 -6 -220 l-3 -180 -115 -3
-115 -3 -7 61 c-4 35 -12 61 -19 61 -7 1 -41 1 -77 0 l-66 -3 3 74 c2 40 6 93
9 117 l6 44 156 -5 c164 -6 222 -2 222 14 0 5 -10 12 -21 15 -21 6 -21 10 -15
105 4 54 9 105 13 113 4 12 36 15 174 15 l170 0 -3 -77z m-2369 -115 c1 -44
-3 -68 -11 -72 -10 -5 -10 -7 0 -12 6 -3 12 -14 12 -23 0 -17 -16 -18 -213
-17 l-213 1 -2 100 c-2 55 -5 108 -8 118 -4 14 1 17 33 17 80 1 374 28 381 35
9 9 20 -65 21 -147z m-731 93 l142 -1 0 -125 0 -125 -147 0 c-82 0 -157 -3
-169 -6 -19 -5 -22 0 -27 47 -7 58 -17 69 -64 69 l-33 0 0 78 0 78 78 -8 c42
-3 141 -7 220 -7z m2144 -2 c110 -5 203 -11 207 -13 5 -4 -5 -366 -11 -371 -2
-2 -38 -5 -80 -7 l-78 -3 0 45 c0 25 -4 51 -9 59 -11 17 -78 30 -158 31 -72 0
-69 -4 -83 121 -13 113 -13 162 1 153 6 -3 101 -10 211 -15z m839 -99 l119 0
0 -53 c0 -29 6 -76 13 -104 15 -57 48 -115 55 -95 2 6 19 12 38 12 l34 0 0
-78 0 -79 -134 -6 c-74 -3 -165 -3 -204 0 l-69 6 -7 75 c-8 101 -8 317 1 326
4 3 13 4 21 1 7 -3 67 -5 133 -5z m-1201 -100 l0 -60 -37 -2 c-21 -1 -48 -1
-59 -1 -28 2 -34 -27 -34 -164 0 -77 -3 -103 -12 -102 -7 1 -61 1 -119 0 -118
-1 -149 -15 -149 -65 0 -21 -5 -26 -25 -26 -22 0 -25 4 -25 40 0 30 -4 40 -16
40 -14 0 -15 7 -10 38 3 20 6 56 6 80 0 28 4 41 11 37 6 -4 30 -4 55 0 l44 6
0 122 0 122 185 -3 185 -3 0 -59z m-2177 20 l157 1 0 -47 c0 -38 -4 -47 -20
-51 -28 -7 -32 -33 -28 -172 2 -78 -1 -120 -7 -118 -6 2 -11 65 -13 152 -2 81
-7 158 -12 170 -8 21 -17 24 -112 30 -57 4 -134 5 -173 3 -67 -3 -70 -2 -73
21 -4 24 -3 24 60 17 34 -4 134 -7 221 -6z m1651 -180 c-4 -91 -7 -166 -8
-167 -1 -1 -109 -3 -241 -4 l-240 -2 -3 139 c-2 77 0 153 3 169 l5 30 245 0
246 0 -7 -165z m-2048 79 c-3 -17 -6 -38 -6 -45 0 -11 -24 -14 -115 -14 l-115
0 0 45 0 45 121 0 122 0 -7 -31z m456 19 c-8 -8 -12 -63 -12 -184 0 -94 -3
-186 -6 -203 l-6 -31 -113 0 c-61 0 -154 3 -205 7 l-93 6 7 146 c4 80 9 172
13 203 l6 58 191 3 c105 1 200 3 211 5 15 1 16 -1 7 -10z m1060 -168 l3 -180
-51 0 -51 0 -1 47 c-2 75 -8 77 -196 81 l-164 4 -1 109 -1 109 222 3 c123 1
226 3 230 5 4 1 8 -79 10 -178z m-726 129 l224 2 0 -96 0 -95 -35 0 c-18 0
-56 -5 -82 -10 l-48 -11 3 -144 c3 -125 1 -145 -12 -145 -13 0 -16 19 -18 113
l-3 112 -142 3 -142 3 11 31 c7 19 9 71 5 140 -5 75 -3 107 4 102 6 -3 111 -5
235 -5z m2138 -64 c-1 -33 -3 -97 -5 -141 l-4 -81 -74 -7 c-115 -9 -171 -8
-171 6 0 6 -10 22 -22 35 -18 19 -32 23 -84 23 -35 0 -65 4 -68 9 -3 4 -7 55
-9 113 l-4 105 221 -1 221 -1 -1 -60z m1401 -12 c10 -93 36 -245 46 -272 5
-13 8 -25 6 -27 -7 -7 -151 -23 -157 -18 -3 3 -9 31 -15 62 l-10 57 -177 -3
c-97 -1 -197 -6 -223 -11 -43 -8 -45 -7 -45 15 0 25 12 27 270 29 l45 0 3 101
3 102 32 6 c18 3 63 5 100 5 38 0 71 2 74 5 4 3 14 6 24 6 14 0 19 -12 24 -57z
m-4348 -154 c-2 -148 -1 -162 17 -175 11 -8 30 -14 43 -14 25 0 26 -3 17 -37
-6 -21 -8 -21 -187 -16 -100 3 -184 7 -185 9 -2 1 4 33 13 71 9 37 24 122 33
188 l17 120 110 6 c61 3 113 6 117 7 4 1 6 -70 5 -159z m3323 0 l0 -95 -60
-10 c-56 -9 -60 -9 -77 13 -16 20 -27 23 -116 25 -72 1 -96 5 -93 14 2 7 8 43
11 80 l7 69 164 0 164 0 0 -96z m-1980 5 l65 -6 0 -38 0 -37 -85 -7 c-53 -4
-90 -12 -99 -21 -11 -11 -16 -50 -19 -155 l-5 -140 -53 0 c-64 0 -84 -16 -84
-71 l0 -39 -81 0 -82 0 7 38 c3 20 9 132 13 249 l6 211 96 7 c53 3 103 8 111
9 27 6 144 6 210 0z m2386 -86 c-2 -40 -5 -133 -5 -205 -1 -73 -4 -133 -8
-133 -5 0 -6 45 -5 101 2 56 1 120 -2 143 -6 40 -9 43 -54 55 -26 8 -102 16
-169 19 l-123 4 0 39 0 38 158 4 c86 1 170 4 185 5 l28 2 -5 -72z m-1087 37
c6 -6 12 -89 15 -185 2 -96 7 -191 11 -210 3 -19 2 -40 -2 -46 -5 -7 -49 -13
-105 -16 l-98 -4 0 66 c-1 95 -18 258 -32 296 -15 43 -43 54 -138 54 l-80 0 0
28 0 28 210 -1 c120 0 214 -5 219 -10z m-549 -19 c0 -21 -5 -24 -51 -28 -76
-8 -83 -19 -89 -151 l-5 -112 -60 -3 c-32 -2 -65 -8 -72 -14 -8 -7 -13 -36
-13 -80 0 -69 0 -69 -26 -66 l-26 3 1 127 c2 132 -7 268 -18 287 -4 6 -35 14
-69 17 -51 6 -62 10 -62 25 0 18 13 19 245 19 l245 0 0 -24z m-1290 -256 l0
-241 -227 3 -228 3 4 110 c2 61 6 141 10 180 l6 70 59 7 c67 9 76 17 76 71 l0
37 150 0 150 0 0 -240z m3395 14 l7 -211 -212 -7 c-117 -4 -215 -4 -219 -1 -3
4 -7 101 -9 216 l-4 209 33 1 c318 12 385 13 390 9 4 -3 10 -100 14 -216z
m-1045 87 l0 -109 -161 -4 c-206 -4 -199 2 -199 -174 l0 -124 -75 0 -75 0 0
39 c0 34 5 42 33 59 l34 19 -5 204 -5 204 227 -3 226 -3 0 -108z m-1450 -123
l0 -217 -226 2 -226 2 2 209 c0 115 2 212 4 215 2 3 104 6 225 6 l221 0 0
-217z m701 102 c1 -58 4 -152 8 -208 3 -57 3 -106 -1 -108 -3 -2 -26 -7 -51
-10 l-45 -6 -3 80 c-4 79 -19 117 -38 97 -4 -6 -5 -102 -2 -215 4 -113 6 -206
5 -208 -1 -2 -99 0 -218 4 l-216 7 0 157 c0 86 -3 178 -6 204 l-7 46 184 0
c204 0 259 6 259 26 0 8 -3 13 -7 13 -5 -1 -68 -1 -140 0 l-133 1 3 113 2 112
202 0 203 0 1 -105z m1263 -45 l1 -135 -125 0 c-69 0 -130 -4 -136 -8 -7 -4
-15 -54 -19 -114 -4 -60 -11 -108 -15 -108 -13 0 -17 263 -5 272 18 13 -4 21
-85 32 l-80 10 0 93 0 93 228 2 c125 2 229 2 231 1 2 -1 4 -63 5 -138z m-3356
80 c2 -1 0 -66 -4 -144 l-7 -141 -36 0 c-20 0 -91 5 -159 12 -117 11 -122 12
-115 32 3 12 9 50 12 86 l6 65 47 3 c45 3 48 5 58 40 5 20 10 42 10 48 0 7 31
9 93 6 50 -2 93 -6 95 -7z m4036 -72 c8 -99 24 -242 32 -269 5 -20 1 -21 -108
-28 -62 -3 -141 -12 -176 -20 -58 -12 -81 -8 -68 12 3 5 31 10 63 11 32 2 78
6 103 9 l45 7 7 55 c5 30 5 108 2 172 l-6 117 43 4 c24 2 47 4 51 5 3 1 9 -33
12 -75z m-4380 -50 c-3 -21 -10 -60 -15 -88 -9 -47 -8 -51 15 -71 15 -14 52
-27 95 -34 l70 -13 -6 -51 c-3 -28 -8 -54 -12 -57 -3 -4 -37 -3 -76 2 -38 4
-129 8 -202 8 l-131 1 18 48 c19 49 50 215 50 264 l0 28 99 0 100 0 -5 -37z
m895 -100 l-3 -118 52 -3 52 -3 0 -55 0 -54 -107 -2 c-102 -3 -336 1 -340 6
-1 1 0 11 3 23 5 19 15 21 140 25 188 8 184 4 184 162 0 109 3 136 17 136 3 0
3 -53 2 -117z m2372 41 l76 -7 6 -226 c4 -124 9 -236 13 -249 l7 -23 -236 3
-236 3 -5 25 c-3 14 -8 106 -11 205 -3 99 -7 201 -10 227 l-4 47 52 4 c59 5
234 0 348 -9z m-2031 -120 c3 -38 9 -75 14 -82 5 -8 38 -12 103 -12 l96 0 -7
-61 c-3 -34 -6 -95 -6 -135 l0 -74 -159 0 -160 0 11 33 c5 17 12 115 15 217
l5 185 42 -1 41 -1 5 -69z m2526 9 c8 -43 21 -73 32 -72 4 1 30 1 58 0 l51 -1
9 -177 c6 -98 8 -181 6 -185 -2 -5 -104 -8 -228 -8 l-224 0 0 240 0 240 145 0
144 0 7 -37z m-3426 -38 c0 -3 -6 -14 -12 -25 -16 -26 1 -40 51 -40 30 0 33
-2 27 -22 -3 -13 -6 -60 -6 -104 l0 -82 -107 5 c-60 3 -109 7 -111 8 -1 1 2
35 8 76 5 41 13 100 16 132 l5 57 65 0 c35 0 64 -2 64 -5z m2288 -13 c9 -3 12
-47 12 -173 l0 -169 -219 0 c-121 0 -226 -3 -235 -6 -11 -4 -16 -1 -16 10 0
13 13 16 84 16 62 0 87 4 96 15 9 11 11 48 9 130 l-4 116 62 3 c73 4 83 9 83
42 0 24 2 25 58 23 31 -1 63 -4 70 -7z m-1537 -163 c-3 -123 -7 -156 -19 -165
-20 -15 -7 -34 24 -34 21 0 24 -5 24 -33 l0 -33 -182 4 c-101 2 -184 5 -185 6
0 0 1 58 4 129 l6 127 47 0 c74 0 214 21 222 34 4 6 8 34 8 63 0 51 8 63 40
58 13 -2 14 -25 11 -156z m749 16 l0 -135 26 -10 c14 -6 36 -10 50 -10 22 0
24 -4 24 -43 l0 -44 -227 -6 c-124 -4 -227 -6 -227 -5 -1 2 0 81 2 176 l3 172
123 0 c108 0 127 2 147 20 13 10 36 19 52 20 l27 0 0 -135z m2182 93 l3 -33
70 3 c39 1 87 5 108 8 l37 6 0 -85 0 -84 -72 -7 c-40 -4 -100 -10 -134 -13
l-61 -5 -6 38 c-4 22 -7 76 -7 122 l0 82 29 0 c26 0 30 -4 33 -32z m-3507 -45
c0 -36 1 -36 55 -49 30 -7 76 -13 101 -14 l45 0 -3 -87 c-2 -49 -6 -97 -8
-109 -5 -23 4 -23 -162 -3 l-103 12 0 144 0 143 38 0 c36 0 37 -1 37 -37z
m3889 -19 c3 -30 4 -60 1 -65 -4 -5 -33 -9 -66 -9 -55 0 -59 2 -59 23 0 12 -3
39 -6 59 -6 36 -5 37 27 41 98 12 96 13 103 -49z m-1575 -10 c10 -3 12 -13 7
-37 -4 -17 -11 -75 -16 -127 -5 -52 -12 -117 -16 -143 l-6 -48 -185 1 c-198 2
-202 3 -189 54 6 23 9 24 125 27 70 3 125 9 131 15 7 7 10 56 8 142 l-3 131
65 -5 c36 -3 71 -8 79 -10z m-2685 -46 c-5 -24 -8 -61 -9 -83 l0 -40 73 -3 73
-3 -7 -37 c-12 -73 -45 -207 -54 -222 -7 -11 -43 -15 -174 -18 -91 -3 -190 -1
-219 2 l-53 7 12 62 c15 73 34 260 34 329 l0 48 166 0 166 0 -8 -42z m3285
-165 c1 -93 5 -95 184 -101 l137 -5 0 -27 0 -27 -216 3 c-119 1 -217 4 -219 6
-2 1 -5 26 -6 53 l-3 50 45 1 c25 0 49 3 55 6 5 4 7 50 3 115 -3 59 -3 113 0
118 7 12 18 -95 20 -192z m968 -47 c13 -82 22 -150 20 -152 -5 -5 -298 -47
-301 -42 -4 4 -54 272 -52 275 1 1 51 10 110 19 83 13 110 21 113 33 3 13 15
17 46 16 l41 -1 23 -148z m-4003 56 c-4 -17 -1 -32 8 -39 18 -16 129 -43 172
-43 33 0 35 -2 31 -27 -13 -79 -47 -260 -51 -275 -5 -16 -24 -18 -218 -18
l-213 0 10 54 10 53 54 14 c41 9 57 19 67 38 17 34 43 140 51 213 7 55 8 57
39 60 42 5 46 2 40 -30z m1714 13 c6 -3 12 -20 12 -38 l0 -34 126 -6 c69 -3
128 -7 131 -10 3 -3 2 -32 -2 -65 l-7 -59 -153 1 -153 1 -6 29 c-10 49 -7 64
17 72 21 7 21 8 -8 20 -16 7 -42 13 -57 14 -26 0 -28 3 -28 43 l0 44 58 -4
c31 -3 63 -6 70 -8z m1891 -122 c1 -70 4 -138 7 -150 6 -22 4 -23 -77 -24 -46
0 -130 -3 -186 -5 l-103 -5 0 30 c0 17 1 34 1 39 1 4 36 14 78 22 l76 16 -1
36 -1 35 85 7 c87 7 122 20 102 40 -11 11 -14 79 -4 89 17 17 22 -13 23 -130z
m-2560 43 c-4 -43 1 -48 54 -57 27 -4 -8 -7 -103 -9 -80 -1 -153 -2 -162 -1
-10 1 -18 -1 -19 -6 0 -4 -6 -48 -12 -98 l-12 -90 -48 -3 -49 -3 7 65 c4 36 8
80 10 98 2 25 8 34 29 41 20 7 27 17 32 47 l6 39 97 4 c53 1 113 4 134 5 38 2
39 2 36 -32z m1562 15 l96 -1 15 -111 c10 -72 21 -116 32 -127 15 -15 16 -14
16 7 0 22 3 23 38 17 20 -3 56 -6 79 -6 l41 0 7 -67 c4 -38 9 -75 11 -84 4
-14 -11 -17 -95 -22 -55 -4 -106 -10 -115 -13 -10 -4 -16 -1 -16 10 0 22 -32
36 -85 36 -47 0 -48 1 -59 53 l-6 27 74 0 c82 0 106 6 106 25 0 22 -26 25
-210 25 l-179 0 -9 43 -8 42 47 14 c41 12 48 18 58 51 6 20 11 49 11 63 0 22
4 25 28 22 15 -2 70 -4 123 -4z m269 -70 c0 -33 4 -63 10 -66 5 -3 50 -11 100
-17 51 -6 90 -16 90 -22 0 -8 -48 -10 -154 -8 l-154 3 -6 37 c-3 20 -8 58 -12
85 l-6 47 66 0 66 0 0 -59z m-2568 16 c4 -31 61 -40 219 -33 75 3 138 3 141 1
5 -5 -7 -104 -18 -157 -6 -28 -7 -28 -84 -28 l-78 0 -7 65 c-7 64 -8 65 -44
75 -20 5 -71 10 -113 10 l-78 0 0 29 c0 16 -3 36 -6 44 -4 12 3 15 30 15 28 0
35 -4 38 -21z m1319 -179 c3 -97 9 -180 13 -186 4 -7 -18 -12 -61 -16 -38 -3
-113 -10 -168 -16 -160 -16 -152 -18 -165 43 -6 28 -14 115 -17 193 l-6 140
74 10 c41 5 130 8 199 8 l125 -2 6 -174z m2070 -18 c8 -5 19 -4 27 2 7 7 42
13 78 16 l64 4 0 -59 c0 -32 3 -68 6 -79 5 -20 0 -23 -46 -33 -73 -16 -91 -14
-97 9 -3 11 -6 21 -7 21 0 1 -50 4 -111 8 l-110 6 0 40 0 40 65 3 c35 2 70 8
77 14 11 8 12 35 9 112 l-5 101 18 -98 c10 -55 24 -103 32 -107z m-2518 173
c-7 -2 -19 -2 -25 0 -7 3 -2 5 12 5 14 0 19 -2 13 -5z m7 -83 l0 -50 -67 -2
c-38 -1 -81 -2 -98 -3 -16 -1 -54 -2 -82 -3 -52 -2 -53 -3 -53 -32 0 -26 -4
-30 -28 -30 l-28 0 10 81 9 82 81 -5 c65 -4 213 2 249 10 4 1 7 -20 7 -48z
m923 24 l37 -7 0 -76 0 -76 -240 0 -240 -1 0 56 0 55 166 -3 c162 -3 187 0
190 29 1 5 2 14 3 19 1 11 29 13 84 4z m202 -50 c4 -29 16 -56 30 -70 21 -21
33 -24 103 -24 85 0 92 -4 92 -56 l0 -24 -160 0 c-133 0 -160 2 -160 14 0 8 5
18 12 22 7 5 4 10 -10 15 -19 7 -22 16 -22 57 0 27 -3 64 -6 81 l-6 31 60 0
60 0 7 -46z m-1890 17 c19 -1 20 -7 17 -98 -1 -54 -5 -140 -8 -190 l-6 -93
-79 0 -79 0 0 43 c0 79 -6 82 -188 86 -132 2 -160 6 -155 17 4 11 33 14 133
14 90 0 130 4 137 13 5 6 18 57 28 112 9 55 19 102 21 105 1 3 38 2 81 -1 43
-4 87 -8 98 -8z m2790 -39 c2 -24 6 -46 9 -50 7 -6 15 -7 149 -17 l97 -7 0
-39 0 -39 -49 0 c-44 0 -52 4 -71 30 l-21 30 -177 2 -177 3 -3 38 -3 37 53 2
c29 1 64 1 77 0 21 -1 23 2 17 29 l-6 30 51 -3 51 -3 3 -43z m765 -137 l0
-136 -117 3 c-139 4 -159 19 -46 36 89 14 105 27 98 81 -2 20 -7 59 -10 88 -6
56 -9 53 63 62 9 1 12 -32 12 -134z m-4271 89 c3 -2 -1 -27 -8 -56 -7 -34 -8
-55 -1 -62 5 -5 49 -12 96 -14 l87 -5 -6 -101 c-4 -55 -12 -123 -19 -151 l-13
-50 -227 1 c-125 0 -229 2 -232 5 -2 2 3 38 10 79 8 41 17 141 20 222 l7 147
141 -6 c78 -3 143 -7 145 -9z m1397 -4 l81 0 6 -72 c12 -143 33 -179 97 -171
l41 6 -3 -78 -3 -77 -45 -4 c-98 -9 -340 -8 -349 1 -14 14 -25 256 -16 339 l7
69 51 -7 c29 -3 88 -6 133 -6z m-408 -61 l177 0 1 -168 0 -169 -44 -6 c-25 -3
-77 -6 -117 -6 l-73 0 -4 56 c-3 33 -11 59 -19 65 -8 5 -45 6 -82 2 -68 -6
-68 -6 -63 18 3 13 8 68 11 122 6 81 10 97 22 93 8 -3 94 -6 191 -7z m2612 -3
c0 -2 3 -11 6 -19 3 -10 -3 -17 -20 -21 -33 -8 -46 -71 -46 -226 0 -66 -4
-120 -8 -120 -5 0 -6 39 -4 88 2 48 0 111 -5 141 -9 63 -14 66 -148 82 -84 10
-89 12 -99 44 -6 20 -2 20 97 17 56 -2 127 1 157 6 30 5 58 10 63 11 4 0 7 -1
7 -3z m-1132 -184 l2 -167 -242 3 c-134 2 -244 4 -245 5 -1 1 -3 76 -5 167
l-3 165 245 -3 245 -2 3 -168z m1334 105 l188 -2 1 -40 c1 -22 4 -113 8 -202
l6 -162 -80 -6 c-138 -10 -325 -13 -330 -5 -2 4 -5 89 -5 189 -1 100 -5 195
-10 211 -8 28 -7 30 13 25 12 -3 106 -6 209 -8z m-832 -112 l0 -110 -160 0
c-183 0 -189 -2 -197 -79 l-6 -46 -50 0 -49 0 6 31 c3 17 6 97 6 176 l0 145
225 -3 225 -4 0 -110z m515 -60 l0 -134 -132 -3 c-72 -2 -134 -6 -138 -10 -4
-4 -10 -54 -12 -112 -3 -58 -9 -106 -13 -106 -11 0 -18 264 -7 271 15 11 -7
18 -87 31 l-76 12 0 93 0 94 233 -2 232 -1 0 -133z m-2970 -30 c-3 -77 -7
-141 -8 -141 -1 -1 -55 -4 -120 -7 -103 -5 -119 -3 -124 11 -4 9 -1 18 5 20
25 8 10 20 -33 26 -49 8 -51 12 -35 81 5 22 10 63 11 90 1 28 3 52 5 55 1 3
71 5 154 5 l153 0 -8 -140z m1425 90 l0 -35 -60 0 c-60 0 -60 0 -60 29 0 33
10 38 78 40 42 1 42 1 42 -34z m-150 -10 c0 -30 -3 -35 -23 -35 -12 0 -33 -7
-45 -16 -20 -13 -22 -24 -22 -94 0 -43 -4 -80 -10 -82 -5 -1 -86 -2 -180 0
-161 3 -170 4 -170 22 0 18 8 20 63 21 34 1 105 3 157 5 l95 3 3 98 c2 62 7
100 15 105 7 4 36 8 65 8 l52 0 0 -35z m2458 -5 l42 0 0 -39 c0 -46 36 -263
50 -305 6 -16 9 -30 8 -32 -2 -1 -87 -5 -190 -9 l-188 -8 0 32 c0 26 4 31 23
31 13 0 32 9 41 19 16 17 17 38 14 172 l-3 152 80 -7 c44 -3 99 -6 123 -6z
m-2306 -100 c2 -35 -1 -50 -9 -50 -7 0 -14 -12 -14 -27 -1 -16 -2 -34 -3 -42
-1 -9 -21 -14 -66 -17 -36 -2 -75 -7 -87 -9 -23 -5 -23 -4 -23 89 l0 95 88 4
c48 1 92 4 99 5 7 1 12 -17 15 -48z m-1052 -62 l0 -98 -27 0 c-16 0 -45 -3
-65 -6 -30 -5 -38 -3 -38 9 0 23 -54 37 -140 37 l-78 0 9 38 c5 20 9 55 9 78
l0 40 165 0 165 -1 0 -97z m2143 15 l97 -6 1 -176 c0 -97 3 -207 8 -245 5 -46
4 -69 -3 -71 -6 -2 -41 -5 -77 -7 l-67 -4 -5 43 c-7 61 -20 73 -83 73 l-54 0
0 83 c0 97 -17 209 -32 219 -7 3 -49 10 -95 13 l-83 7 0 39 0 39 148 0 c81 0
191 -3 245 -7z m-1733 -46 c0 -16 -9 -26 -30 -34 -21 -8 -30 -18 -30 -33 0
-19 -4 -21 -22 -15 -13 4 -83 9 -155 12 l-133 5 0 39 0 38 148 4 c81 1 164 4
185 5 33 2 37 -1 37 -21z m1146 -11 c-2 -18 -11 -22 -67 -26 -61 -5 -64 -6
-70 -35 -4 -16 -7 -112 -8 -212 -1 -171 -2 -183 -20 -183 -16 0 -19 11 -25 92
-4 56 -11 95 -19 100 -6 4 -32 10 -57 14 l-45 6 -3 76 c-2 43 -5 84 -8 93 -6
23 -49 38 -109 41 -52 3 -65 11 -65 40 0 16 20 17 250 16 248 -1 249 -1 246
-22z m-2223 -17 c3 -12 6 -89 6 -173 l0 -151 -242 3 c-133 2 -243 4 -244 6 -2
1 -6 74 -9 162 l-7 159 174 -3 c96 -2 192 1 214 6 70 17 102 15 108 -9z m3323
-45 c7 -50 21 -60 101 -71 l43 -6 0 -51 c0 -28 3 -108 7 -178 l6 -128 -226 0
-227 0 0 224 c0 123 -3 231 -6 240 -5 14 11 16 144 16 l151 0 7 -46z m-1866 6
c0 -30 34 -284 47 -348 8 -45 13 -86 9 -90 -9 -8 -384 -7 -392 1 -11 11 -32
130 -43 242 -6 61 -14 130 -17 155 l-5 45 200 0 c111 0 201 -2 201 -5z m-1151
-10 l197 0 -2 -107 -3 -108 -159 -5 c-177 -6 -192 -11 -192 -66 0 -39 -9 -46
-61 -48 l-39 -2 0 174 0 175 31 -7 c17 -3 120 -6 228 -6z m2262 -91 c4 -52 7
-149 8 -216 l1 -123 -225 0 -225 0 0 218 0 217 218 -1 217 -1 6 -94z m-705 -6
l4 -82 -117 -4 c-181 -7 -180 -6 -182 -99 -2 -68 -19 -40 -31 50 -6 48 -15
112 -20 142 -12 80 -9 81 183 78 l159 -3 4 -82z m-851 -75 l0 -137 -135 -3
-135 -3 -5 -110 c-3 -63 -9 -110 -15 -110 -6 0 -12 54 -15 133 -3 72 -2 132 3
132 4 0 7 4 7 9 0 10 -79 29 -135 34 l-30 2 -3 97 -3 98 233 -3 233 -2 0 -137z
m2695 76 c0 -47 17 -64 64 -64 l43 0 10 -77 c5 -43 13 -85 17 -93 5 -13 -1
-16 -31 -16 -21 0 -92 -4 -159 -9 l-121 -8 -6 69 c-4 38 -7 104 -7 147 l0 77
95 0 95 0 0 -26z m344 -96 c3 -18 11 -68 17 -112 10 -72 25 -133 44 -178 7
-16 -2 -18 -91 -18 -55 -1 -146 -5 -203 -10 -58 -5 -106 -8 -108 -7 -1 2 -5
28 -9 58 l-6 55 66 11 c37 6 79 19 93 28 27 18 27 16 7 163 l-6 42 95 0 96 0
5 -32z m-1073 -100 c2 -128 4 -147 16 -159 19 -19 87 -29 201 -29 l112 0 0
-32 0 -31 -216 6 c-119 4 -218 8 -219 9 -1 2 -5 24 -8 51 l-7 47 50 0 c27 0
52 5 56 12 8 13 7 93 -2 176 -4 35 -3 52 5 52 7 0 11 -35 12 -102z m-1120 66
l134 -7 -3 -103 -3 -104 -133 0 c-74 0 -148 -3 -165 -6 l-31 -6 0 61 c0 55 -2
61 -22 66 -20 5 -23 12 -23 55 l0 50 56 0 c31 0 116 -3 190 -6z m-1255 -50
l51 -6 7 -222 c4 -121 8 -232 9 -245 2 -24 0 -25 -85 -29 l-88 -4 -1 204 c-1
111 -1 208 0 214 2 19 -37 25 -184 31 l-141 5 1 27 c0 22 6 27 35 33 39 7 316
2 396 -8z m-626 -46 c0 -10 -9 -18 -22 -20 -31 -4 -36 -46 -37 -265 l-1 -173
-221 0 -222 0 7 53 c3 28 6 135 6 237 l0 185 245 0 c223 0 245 -2 245 -17z
m2742 -185 c3 -109 8 -206 13 -215 7 -17 -4 -18 -154 -18 l-161 0 0 130 0 130
83 0 c45 0 87 4 94 8 19 12 33 60 33 113 l0 49 44 0 44 0 4 -197z m-1653 97
l17 -55 63 -7 c35 -4 65 -9 67 -11 6 -5 22 -331 17 -337 -3 -3 -106 -6 -229
-8 l-224 -3 0 241 0 241 136 -3 137 -3 16 -55z m543 -150 l-3 -188 -155 -7
c-87 -4 -159 -4 -164 1 -4 5 -11 68 -15 139 l-7 131 70 -4 c93 -5 203 12 220
35 8 11 11 30 7 49 -6 36 -2 43 28 37 22 -4 22 -5 19 -193z m-1157 145 c-1
-19 -2 -125 -3 -235 l-2 -200 -244 0 -244 0 4 233 c2 127 4 234 4 237 0 3 109
4 242 3 l243 -2 0 -36z m3157 9 l45 -6 11 -112 c6 -61 14 -119 17 -128 6 -16
0 -18 -51 -19 -33 0 -83 -4 -111 -8 l-53 -7 0 65 c0 36 -4 83 -9 104 l-9 37
39 6 c41 7 68 27 49 39 -17 10 -11 35 9 35 10 0 38 -3 63 -6z m-1512 -44 c18
-18 33 -20 144 -20 l123 0 5 -172 c3 -95 5 -174 4 -174 -1 -1 -65 -4 -143 -6
l-141 -5 -4 168 c-3 156 -5 170 -26 198 -22 30 -22 31 -2 31 11 0 29 -9 40
-20z m730 -39 c0 -35 5 -63 13 -69 10 -9 105 -19 237 -26 25 -1 25 -1 30 -126
3 -69 3 -128 -1 -133 -3 -4 -86 -6 -185 -5 l-179 3 -3 26 c-3 22 2 29 27 37
30 11 44 42 19 42 -10 0 -14 40 -16 155 l-3 155 30 0 31 0 0 -59z m-786 -34
c3 -23 7 -115 8 -205 l3 -162 -30 -5 c-16 -2 -114 -6 -217 -8 l-188 -4 0 54
c0 32 5 60 14 68 14 14 31 139 21 156 -4 5 -3 39 0 74 l7 65 162 2 c88 2 173
4 188 5 25 2 27 -1 32 -40z m1384 -101 l4 -143 -29 -6 c-47 -9 -234 -29 -237
-26 -2 2 -7 52 -11 110 l-7 106 44 1 c23 1 69 7 101 14 l57 12 0 38 c0 37 1
38 38 38 l37 0 3 -144z m621 -28 c6 -55 9 -103 7 -105 -2 -2 -62 -11 -132 -18
-71 -8 -145 -16 -165 -19 -35 -4 -37 -2 -43 32 -4 26 -1 38 11 47 15 11 16 19
5 65 -19 80 -17 88 21 93 17 2 89 5 158 5 l126 2 12 -102z m-3309 -63 c0 -159
-6 -154 187 -162 l140 -6 -5 -23 -4 -24 -219 0 -219 0 0 55 0 56 45 -2 c24 -2
48 0 52 4 3 4 5 59 4 123 -2 81 1 114 8 109 7 -4 11 -52 11 -130z m1585 -387
c17 -40 42 -97 57 -126 15 -30 25 -59 22 -65 -7 -18 -1258 -13 -1262 5 -2 10
96 13 502 13 277 0 508 3 512 8 4 4 4 10 0 15 -4 4 -230 7 -502 7 -272 0 -494
2 -494 5 0 4 58 143 82 195 9 20 17 20 531 18 l522 -3 30 -72z"/>
<path d="M3467 1104 c-15 -15 7 -24 58 -24 54 0 79 12 49 24 -21 8 -99 8 -107
0z"/>
<path d="M2180 860 l-235 -5 -32 -125 c-33 -129 -34 -164 -3 -180 12 -6 414
-10 1089 -10 1058 0 1071 0 1091 20 11 11 20 28 20 38 -1 28 -58 244 -68 254
-10 10 -1477 16 -1862 8z m-110 -60 c0 -18 -7 -20 -55 -20 -30 0 -55 2 -55 4
0 26 16 36 61 36 42 0 49 -3 49 -20z m180 16 c0 -29 -16 -36 -81 -36 -62 0
-69 2 -69 20 0 18 7 20 75 20 41 0 75 -2 75 -4z m180 0 c0 -29 -16 -36 -84
-36 -77 0 -88 4 -79 26 4 10 26 14 84 14 43 0 79 -2 79 -4z m180 -16 c0 -18
-7 -20 -80 -20 -73 0 -80 2 -80 20 0 18 7 20 80 20 73 0 80 -2 80 -20z m200 0
c0 -18 -7 -20 -84 -20 -63 0 -85 4 -89 14 -9 23 2 26 90 26 76 0 83 -2 83 -20z
m190 0 c0 -18 -7 -20 -80 -20 -73 0 -80 2 -80 20 0 18 7 20 80 20 73 0 80 -2
80 -20z m195 0 c0 -12 -16 -15 -80 -15 -69 0 -80 2 -83 18 -3 16 4 18 80 15
66 -2 83 -6 83 -18z m205 0 c0 -18 -7 -20 -85 -20 -78 0 -85 2 -85 20 0 18 7
20 85 20 78 0 85 -2 85 -20z m230 16 c0 -2 3 -12 6 -21 6 -14 -5 -15 -97 -13
-90 3 -104 5 -107 21 -3 15 7 17 97 17 56 0 101 -2 101 -4z m230 0 c0 -2 3
-12 6 -21 6 -14 -5 -15 -92 -13 -85 3 -99 5 -102 21 -3 15 6 17 92 17 53 0 96
-2 96 -4z m170 -13 c0 -10 3 -35 7 -56 l6 -38 -54 3 c-42 2 -55 7 -57 21 -3
14 4 17 42 17 34 0 46 4 46 15 0 12 -13 15 -55 15 -44 0 -56 4 -65 20 -10 19
-8 20 60 20 60 0 70 -3 70 -17z m-2003 -53 c55 0 35 -24 -25 -30 -43 -5 -52
-3 -52 11 0 21 11 31 28 24 7 -3 29 -5 49 -5z m201 -12 c-5 -15 -148 -24 -148
-10 0 18 15 22 83 22 50 0 68 -3 65 -12z m180 0 c-5 -15 -158 -24 -158 -10 0
18 15 22 88 22 54 0 73 -3 70 -12z m192 -3 c0 -12 -16 -15 -85 -15 -69 0 -85
3 -85 15 0 12 16 15 85 15 69 0 85 -3 85 -15z m200 0 c0 -12 -16 -15 -85 -15
-69 0 -85 3 -85 15 0 12 16 15 85 15 69 0 85 -3 85 -15z m198 -2 c-3 -15 -16
-18 -81 -19 -42 -1 -80 2 -83 7 -13 21 12 29 87 29 71 0 80 -2 77 -17z m202
-3 c0 -18 -7 -20 -79 -20 -76 0 -100 8 -86 30 3 6 42 10 86 10 72 0 79 -2 79
-20z m210 0 c0 -18 -7 -20 -84 -20 -81 0 -105 8 -91 30 3 6 44 10 91 10 77 0
84 -2 84 -20z m248 -2 c3 -16 -7 -18 -102 -18 -58 0 -106 2 -106 4 0 2 -3 12
-6 21 -6 14 6 15 102 13 94 -3 109 -5 112 -20z m232 2 c10 -19 8 -20 -90 -20
-55 0 -100 2 -100 4 0 2 -3 11 -6 20 -5 14 6 16 90 16 85 0 96 -2 106 -20z
m170 -77 c0 -9 -17 -13 -50 -13 -43 0 -50 3 -50 19 0 16 8 20 43 23 41 3 57
-5 57 -29z m-2020 7 c0 -18 -7 -20 -55 -20 -30 0 -55 2 -55 4 0 26 16 36 61
36 42 0 49 -3 49 -20z m170 0 c0 -18 -7 -20 -70 -20 -52 0 -70 3 -70 13 0 23
11 27 77 27 56 0 63 -2 63 -20z m180 0 c0 -18 -7 -20 -75 -20 -68 0 -75 2 -75
20 0 18 7 20 75 20 68 0 75 -2 75 -20z m1290 16 c0 -2 3 -11 6 -20 6 -15 -54
-16 -630 -16 -629 0 -636 0 -636 20 0 20 7 20 630 20 347 0 630 -2 630 -4z
m240 0 c0 -2 3 -11 6 -20 5 -14 -7 -16 -99 -16 -96 0 -105 2 -110 20 -5 19 0
20 99 20 57 0 104 -2 104 -4z m150 -78 c0 -17 -2143 -14 -2148 2 -3 7 361 10
1072 10 854 0 1076 -3 1076 -12z"/>
<path d="M4489 855 c-88 -28 -105 -74 -57 -154 39 -65 133 -133 217 -158 102
-29 281 4 308 57 40 79 -6 173 -114 237 -45 26 -56 28 -178 30 -92 2 -143 -2
-176 -12z m334 -58 c59 -35 97 -89 97 -140 0 -35 -3 -39 -37 -54 -21 -8 -74
-18 -118 -20 -77 -5 -82 -4 -113 22 -18 15 -44 51 -58 81 -29 61 -74 104 -110
104 -13 0 -24 4 -24 9 0 17 89 30 201 27 105 -2 119 -4 162 -29z m-312 -64
c30 -26 66 -90 55 -100 -7 -7 -116 103 -116 116 0 19 28 12 61 -16z"/>
</g>
</svg>
