<?xml version="1.0" standalone="no"?>
<!DOCTYPE svg PUBLIC "-//W3C//DTD SVG 20010904//EN"
 "http://www.w3.org/TR/2001/REC-SVG-20010904/DTD/svg10.dtd">
<svg version="1.0" xmlns="http://www.w3.org/2000/svg"
 width="736.000000pt" height="736.000000pt" viewBox="0 0 736.000000 736.000000"
 preserveAspectRatio="xMidYMid meet">

<g transform="translate(0.000000,736.000000) scale(0.100000,-0.100000)"
fill="#000000" stroke="none">
<path d="M3540 6343 c-905 -50 -1720 -544 -2185 -1325 -239 -399 -366 -837
-382 -1313 -21 -655 170 -1247 576 -1780 90 -119 322 -354 441 -449 208 -164
473 -317 714 -411 175 -69 242 -63 289 26 17 31 18 56 14 297 -3 145 -7 265
-9 266 -1 2 -37 -2 -78 -10 -101 -18 -302 -18 -388 1 -137 28 -227 76 -323
170 -51 50 -71 83 -139 221 -69 139 -91 173 -152 239 -39 41 -89 87 -112 100
-63 37 -118 98 -114 126 7 53 138 62 249 19 64 -26 164 -95 207 -144 17 -20
56 -73 86 -119 137 -208 301 -299 513 -284 75 5 231 44 258 64 6 5 19 42 28
84 22 91 61 178 111 239 l36 45 -28 7 c-15 3 -85 16 -157 28 -218 37 -422 113
-570 213 -77 52 -200 175 -252 252 -125 186 -193 409 -213 702 -25 347 48 608
236 840 l34 42 -21 73 c-27 94 -37 288 -19 396 16 98 58 244 73 254 23 15 116
8 212 -17 111 -28 281 -106 429 -197 l100 -61 80 17 c248 54 301 59 581 60
283 1 333 -3 570 -51 l130 -25 100 62 c209 132 414 212 555 214 l84 1 19 -50
c60 -159 78 -401 42 -555 -30 -129 -30 -121 12 -173 108 -130 187 -312 218
-497 21 -121 16 -362 -9 -515 -68 -408 -260 -686 -584 -849 -136 -69 -342
-125 -584 -161 l-38 -6 39 -52 c53 -70 97 -166 117 -257 14 -65 16 -136 15
-521 -2 -487 -2 -493 54 -537 65 -52 219 -9 512 143 262 135 457 278 674 494
496 495 772 1136 796 1846 22 662 -185 1291 -595 1805 -94 118 -309 334 -422
424 -520 413 -1181 626 -1830 589z"/>
</g>
</svg>
